<mxfile host="app.diagrams.net" modified="2021-09-27T09:21:55.944Z" agent="5.0 (Windows NT 10.0; Win64; x64) AppleWebKit/537.36 (KHTML, like Gecko) Chrome/90.0.4430.212 Safari/537.36" etag="ceR1DF5e5gghzyoFvEPz" version="15.3.4" type="github">
  <diagram id="2f404044-711c-603c-8f00-f6bb4c023d3c" name="Page-1">
    <mxGraphModel dx="868" dy="450" grid="0" gridSize="10" guides="1" tooltips="1" connect="1" arrows="1" fold="1" page="1" pageScale="1" pageWidth="1169" pageHeight="827" background="none" math="0" shadow="0">
      <root>
        <mxCell id="0" />
        <mxCell id="1" parent="0" />
        <mxCell id="D6hgGwjGK1IcLo61PA9x-241" value="" style="aspect=fixed;perimeter=ellipsePerimeter;html=1;align=center;shadow=0;dashed=0;fontColor=#4277BB;labelBackgroundColor=#ffffff;fontSize=12;spacingTop=3;image;image=img/lib/ibm/devops/configuration_management.svg;hachureGap=4;pointerEvents=0;" vertex="1" parent="1">
          <mxGeometry x="250" y="280" width="60" height="60" as="geometry" />
        </mxCell>
        <mxCell id="D6hgGwjGK1IcLo61PA9x-242" value="" style="aspect=fixed;perimeter=ellipsePerimeter;html=1;align=center;shadow=0;dashed=0;fontColor=#4277BB;labelBackgroundColor=#ffffff;fontSize=12;spacingTop=3;image;image=img/lib/ibm/devops/configuration_management.svg;hachureGap=4;pointerEvents=0;" vertex="1" parent="1">
          <mxGeometry x="490" y="280" width="60" height="60" as="geometry" />
        </mxCell>
        <mxCell id="D6hgGwjGK1IcLo61PA9x-256" style="edgeStyle=orthogonalEdgeStyle;rounded=0;orthogonalLoop=1;jettySize=auto;html=1;exitX=0.5;exitY=1;exitDx=0;exitDy=0;entryX=0.5;entryY=0;entryDx=0;entryDy=0;endArrow=open;startSize=14;endSize=14;sourcePerimeterSpacing=8;targetPerimeterSpacing=8;" edge="1" parent="1" source="D6hgGwjGK1IcLo61PA9x-243" target="D6hgGwjGK1IcLo61PA9x-241">
          <mxGeometry relative="1" as="geometry" />
        </mxCell>
        <mxCell id="D6hgGwjGK1IcLo61PA9x-257" style="edgeStyle=orthogonalEdgeStyle;rounded=0;orthogonalLoop=1;jettySize=auto;html=1;exitX=1;exitY=0.75;exitDx=0;exitDy=0;endArrow=open;startSize=14;endSize=14;sourcePerimeterSpacing=8;targetPerimeterSpacing=8;entryX=0.5;entryY=0;entryDx=0;entryDy=0;" edge="1" parent="1" source="D6hgGwjGK1IcLo61PA9x-243" target="D6hgGwjGK1IcLo61PA9x-242">
          <mxGeometry relative="1" as="geometry" />
        </mxCell>
        <mxCell id="D6hgGwjGK1IcLo61PA9x-243" value="" style="aspect=fixed;perimeter=ellipsePerimeter;html=1;align=center;shadow=0;dashed=0;fontColor=#4277BB;labelBackgroundColor=#ffffff;fontSize=12;spacingTop=3;image;image=img/lib/ibm/data/data_sources.svg;hachureGap=4;pointerEvents=0;" vertex="1" parent="1">
          <mxGeometry x="370" y="100" width="60" height="60" as="geometry" />
        </mxCell>
        <mxCell id="D6hgGwjGK1IcLo61PA9x-244" value="&lt;font color=&quot;#6666ff&quot;&gt;配置Agent服务&lt;/font&gt;" style="text;html=1;resizable=0;autosize=1;align=center;verticalAlign=middle;points=[];fillColor=none;strokeColor=none;rounded=0;hachureGap=4;pointerEvents=0;" vertex="1" parent="1">
          <mxGeometry x="235" y="340" width="90" height="20" as="geometry" />
        </mxCell>
        <mxCell id="D6hgGwjGK1IcLo61PA9x-245" value="&lt;font color=&quot;#6666ff&quot;&gt;配置Agent服务&lt;/font&gt;" style="text;html=1;resizable=0;autosize=1;align=center;verticalAlign=middle;points=[];fillColor=none;strokeColor=none;rounded=0;hachureGap=4;pointerEvents=0;" vertex="1" parent="1">
          <mxGeometry x="475" y="340" width="90" height="20" as="geometry" />
        </mxCell>
        <mxCell id="D6hgGwjGK1IcLo61PA9x-255" style="edgeStyle=none;rounded=0;orthogonalLoop=1;jettySize=auto;html=1;exitX=0.88;exitY=0.5;exitDx=0;exitDy=0;exitPerimeter=0;endArrow=open;startSize=14;endSize=14;sourcePerimeterSpacing=8;targetPerimeterSpacing=8;" edge="1" parent="1" source="D6hgGwjGK1IcLo61PA9x-246" target="D6hgGwjGK1IcLo61PA9x-243">
          <mxGeometry relative="1" as="geometry" />
        </mxCell>
        <mxCell id="D6hgGwjGK1IcLo61PA9x-246" value="" style="sketch=0;pointerEvents=1;shadow=0;dashed=0;html=1;strokeColor=none;labelPosition=center;verticalLabelPosition=bottom;verticalAlign=top;align=center;fillColor=#515151;shape=mxgraph.mscae.system_center.admin_console;hachureGap=4;" vertex="1" parent="1">
          <mxGeometry x="150" y="112" width="50" height="36" as="geometry" />
        </mxCell>
        <mxCell id="D6hgGwjGK1IcLo61PA9x-247" value="&lt;font color=&quot;#6666ff&quot;&gt;注册中心&lt;/font&gt;" style="text;html=1;resizable=0;autosize=1;align=center;verticalAlign=middle;points=[];fillColor=none;strokeColor=none;rounded=0;hachureGap=4;pointerEvents=0;" vertex="1" parent="1">
          <mxGeometry x="370" y="160" width="60" height="20" as="geometry" />
        </mxCell>
        <mxCell id="D6hgGwjGK1IcLo61PA9x-250" value="推送" style="text;html=1;resizable=0;autosize=1;align=center;verticalAlign=middle;points=[];fillColor=none;strokeColor=none;rounded=0;hachureGap=4;pointerEvents=0;" vertex="1" parent="1">
          <mxGeometry x="263" y="230" width="34" height="18" as="geometry" />
        </mxCell>
        <mxCell id="D6hgGwjGK1IcLo61PA9x-252" value="推送" style="text;html=1;resizable=0;autosize=1;align=center;verticalAlign=middle;points=[];fillColor=none;strokeColor=none;rounded=0;hachureGap=4;pointerEvents=0;" vertex="1" parent="1">
          <mxGeometry x="506" y="225" width="34" height="18" as="geometry" />
        </mxCell>
        <mxCell id="D6hgGwjGK1IcLo61PA9x-254" value="下发对接信息" style="text;html=1;resizable=0;autosize=1;align=center;verticalAlign=middle;points=[];fillColor=none;strokeColor=none;rounded=0;hachureGap=4;pointerEvents=0;" vertex="1" parent="1">
          <mxGeometry x="249" y="111" width="82" height="18" as="geometry" />
        </mxCell>
      </root>
    </mxGraphModel>
  </diagram>
</mxfile>
